<?xml version="1.0" standalone="no"?>
<!DOCTYPE svg PUBLIC "-//W3C//DTD SVG 20010904//EN"
 "http://www.w3.org/TR/2001/REC-SVG-20010904/DTD/svg10.dtd">
<svg version="1.0" xmlns="http://www.w3.org/2000/svg"
 width="700.000000pt" height="700.000000pt" viewBox="0 0 700.000000 700.000000"
 preserveAspectRatio="xMidYMid meet">
<metadata>
Created by potrace 1.14, written by Peter Selinger 2001-2017
</metadata>
<g transform="translate(0.000000,700.000000) scale(0.100000,-0.100000)"
fill="#000000" stroke="none">
<path d="M5200 6410 c-53 -10 -102 -34 -141 -68 -19 -16 -376 -543 -794 -1171
-418 -627 -762 -1140 -765 -1140 -3 0 -342 506 -754 1124 -412 618 -763 1139
-780 1156 -62 64 -166 94 -261 75 -161 -32 -266 -206 -220 -363 11 -37 190
-311 630 -963 280 -415 640 -952 650 -968 6 -9 52 -79 103 -154 50 -76 92
-140 92 -142 0 -3 -224 -7 -497 -8 -483 -3 -499 -4 -544 -24 -105 -49 -170
-156 -165 -274 5 -121 75 -220 184 -260 53 -20 76 -21 663 -20 l609 0 0 -290
c0 -159 -3 -291 -7 -291 -5 -1 -280 -3 -613 -4 -370 -2 -617 -6 -636 -13 -85
-27 -151 -92 -185 -182 -51 -134 11 -287 145 -358 l51 -27 605 -2 c333 -1 613
-2 623 -2 16 -1 17 -37 17 -609 0 -686 -2 -664 76 -751 115 -128 313 -127 429
1 76 85 75 70 75 755 l0 603 43 1 c23 0 296 1 606 1 390 1 575 4 600 12 125
39 201 138 207 267 6 134 -78 256 -200 291 -29 8 -219 12 -641 14 -330 1 -603
2 -607 3 -5 0 -8 131 -8 291 l0 289 603 0 c651 1 663 1 735 55 171 126 155
389 -31 492 l-52 29 -497 3 c-274 1 -498 5 -498 7 0 3 73 114 163 247 90 134
278 414 419 623 140 209 397 592 570 850 174 259 322 490 331 515 69 202 -122
419 -333 380z"/>
</g>
</svg>
